<?xml version="1.0" encoding="utf-8"?>
<!-- Generator: Adobe Illustrator 23.0.6, SVG Export Plug-In . SVG Version: 6.00 Build 0)  -->
<svg version="1.1" id="Layer_1" focusable="false" xmlns="http://www.w3.org/2000/svg" xmlns:xlink="http://www.w3.org/1999/xlink"
	 x="0px" y="0px" viewBox="0 0 640 512" style="enable-background:new 0 0 640 512;" xml:space="preserve">
<style type="text/css">
	.st0{fill:#FFFFFF;}
</style>
<path class="st0" d="M336,416h-11.2l9.3-27.8L267,336.4L240.5,416H208c-8.8,0-16,7.2-16,16v32c0,8.8,7.2,16,16,16h128
	c8.8,0,16-7.2,16-16v-32C352,423.2,344.8,416,336,416z M633.8,458.1L377,259.6L426.2,112H544v32c0,8.8,7.2,16,16,16h32
	c8.8,0,16-7.2,16-16V48c0-8.8-7.2-16-16-16H176c-8.8,0-16,7.2-16,16v43.9L45.5,3.4c-7-5.4-17-4.2-22.5,2.8c0,0,0,0,0,0L3.4,31.5
	c-5.4,7-4.2,17,2.8,22.5l588.4,454.7c7,5.4,17,4.2,22.5-2.8c0,0,0,0,0,0l19.6-25.3C642.1,473.6,640.8,463.5,633.8,458.1z
	 M309.9,207.8L224,141.4V112h117.8L309.9,207.8z"/>
</svg>
