<?xml version="1.0" encoding="utf-8"?>
<!-- Generator: Adobe Illustrator 23.0.6, SVG Export Plug-In . SVG Version: 6.00 Build 0)  -->
<svg version="1.1"
	 id="svg2325" inkscape:export-filename="/home/adrien/Bureau/En cours/Wikipedia.fr/Final/communauté48.png" inkscape:export-xdpi="135" inkscape:export-ydpi="135" inkscape:output_extension="org.inkscape.output.svg.inkscape" inkscape:version="0.45.1" sodipodi:docbase="C:\Documents and Settings\Aqua\Desktop" sodipodi:docname="magnifying_icon.svg" sodipodi:version="0.32" xmlns:cc="http://web.resource.org/cc/" xmlns:dc="http://purl.org/dc/elements/1.1/" xmlns:inkscape="http://www.inkscape.org/namespaces/inkscape" xmlns:rdf="http://www.w3.org/1999/02/22-rdf-syntax-ns#" xmlns:sodipodi="http://sodipodi.sourceforge.net/DTD/sodipodi-0.dtd" xmlns:svg="http://www.w3.org/2000/svg"
	 xmlns="http://www.w3.org/2000/svg" xmlns:xlink="http://www.w3.org/1999/xlink" x="0px" y="0px" viewBox="0 0 32 32"
	 style="enable-background:new 0 0 32 32;" xml:space="preserve">
<style type="text/css">
	.st0{fill:#444444;}
	.st1{fill:none;stroke:#444444;stroke-width:2;stroke-miterlimit:10;}
</style>
<sodipodi:namedview  bordercolor="#666666" borderopacity="1.0" id="base" inkscape:current-layer="layer1" inkscape:cx="16" inkscape:cy="16.002268" inkscape:document-units="px" inkscape:grid-bbox="true" inkscape:grid-points="true" inkscape:pageopacity="0.0" inkscape:pageshadow="2" inkscape:window-height="623" inkscape:window-width="934" inkscape:window-x="346" inkscape:window-y="99" inkscape:zoom="13.373104" pagecolor="#ffffff" showgrid="true">
	</sodipodi:namedview>
<g id="layer1" inkscape:groupmode="layer" inkscape:label="Layer 1">
	<path id="rect3229" sodipodi:nodetypes="cssssssccsssssssccssccssssssssc" class="st0" d="M12.7,2.5c0,0,0.1,0,0.1,0c0,0,0,0,0,0
		c0,0,0,0,0.1,0c0,0,0,0,0,0c0.2,0,0.4,0,0.6,0c6.1,0,11,4.9,11,11c0,2.3-0.7,4.4-1.9,6.2l6.6,6.5c0,0,0,0,0,0c0,0,0,0.1,0,0.1
		c0,0,0,0,0,0.1c0.2,0.5-0.3,1.7-1.2,2.6c-1,1-2.1,1.5-2.6,1.3c0,0,0,0-0.1,0c0,0,0,0-0.1,0c0,0,0,0,0,0l-6.9-6.8
		c-1.5,0.7-3.1,1.2-4.9,1.2c-6.1,0-11-4.9-11-11C2.5,7.7,7,2.9,12.7,2.5z M12.8,6C9,6.4,6,9.6,6,13.5c0,4.1,3.4,7.5,7.5,7.5
		s7.5-3.4,7.5-7.5S17.6,6,13.5,6c-0.2,0-0.3,0-0.5,0c0,0,0,0,0,0c0,0-0.1,0-0.1,0C12.9,6,12.9,6,12.8,6C12.8,6,12.8,6,12.8,6z"/>
</g>
<line class="st1" x1="13.5" y1="8.7" x2="13.5" y2="18.3"/>
<line class="st1" x1="18.3" y1="13.5" x2="8.7" y2="13.5"/>
</svg>
